<mxfile host="app.diagrams.net" agent="Mozilla/5.0 (Macintosh; Intel Mac OS X 10_15_7) AppleWebKit/537.36 (KHTML, like Gecko) Chrome/131.0.0.0 Safari/537.36" version="25.0.3">
  <diagram name="Page-1" id="vGNgzaY_b6zds_z18Hjb">
    <mxGraphModel dx="829" dy="513" grid="1" gridSize="10" guides="1" tooltips="1" connect="1" arrows="1" fold="1" page="1" pageScale="1" pageWidth="850" pageHeight="1100" math="0" shadow="0">
      <root>
        <mxCell id="0" />
        <mxCell id="1" parent="0" />
        <mxCell id="Ydd5iHWkTLME6IX3Onbc-3" value="" style="edgeStyle=orthogonalEdgeStyle;rounded=0;orthogonalLoop=1;jettySize=auto;html=1;" edge="1" parent="1" source="Ydd5iHWkTLME6IX3Onbc-1" target="Ydd5iHWkTLME6IX3Onbc-2">
          <mxGeometry relative="1" as="geometry" />
        </mxCell>
        <mxCell id="Ydd5iHWkTLME6IX3Onbc-1" value="Start" style="strokeWidth=2;html=1;shape=mxgraph.flowchart.start_1;whiteSpace=wrap;" vertex="1" parent="1">
          <mxGeometry x="100" y="30" width="100" height="60" as="geometry" />
        </mxCell>
        <mxCell id="Ydd5iHWkTLME6IX3Onbc-5" value="" style="edgeStyle=orthogonalEdgeStyle;rounded=0;orthogonalLoop=1;jettySize=auto;html=1;" edge="1" parent="1" source="Ydd5iHWkTLME6IX3Onbc-2" target="Ydd5iHWkTLME6IX3Onbc-4">
          <mxGeometry relative="1" as="geometry" />
        </mxCell>
        <mxCell id="Ydd5iHWkTLME6IX3Onbc-2" value="Display Task List" style="rounded=1;whiteSpace=wrap;html=1;strokeWidth=2;" vertex="1" parent="1">
          <mxGeometry x="270" y="30" width="120" height="60" as="geometry" />
        </mxCell>
        <mxCell id="Ydd5iHWkTLME6IX3Onbc-7" value="" style="edgeStyle=orthogonalEdgeStyle;rounded=0;orthogonalLoop=1;jettySize=auto;html=1;" edge="1" parent="1" source="Ydd5iHWkTLME6IX3Onbc-4" target="Ydd5iHWkTLME6IX3Onbc-6">
          <mxGeometry relative="1" as="geometry" />
        </mxCell>
        <mxCell id="Ydd5iHWkTLME6IX3Onbc-4" value="User Selects &quot;Edit Task&quot;" style="rounded=1;whiteSpace=wrap;html=1;strokeWidth=2;" vertex="1" parent="1">
          <mxGeometry x="470" y="30" width="120" height="60" as="geometry" />
        </mxCell>
        <mxCell id="Ydd5iHWkTLME6IX3Onbc-9" value="" style="edgeStyle=orthogonalEdgeStyle;rounded=0;orthogonalLoop=1;jettySize=auto;html=1;" edge="1" parent="1" source="Ydd5iHWkTLME6IX3Onbc-6" target="Ydd5iHWkTLME6IX3Onbc-8">
          <mxGeometry relative="1" as="geometry" />
        </mxCell>
        <mxCell id="Ydd5iHWkTLME6IX3Onbc-6" value="Allow User Customizations (Change Due Date, Add Notes, etc.)" style="rounded=1;whiteSpace=wrap;html=1;strokeWidth=2;" vertex="1" parent="1">
          <mxGeometry x="470" y="170" width="120" height="60" as="geometry" />
        </mxCell>
        <mxCell id="Ydd5iHWkTLME6IX3Onbc-11" value="" style="edgeStyle=orthogonalEdgeStyle;rounded=0;orthogonalLoop=1;jettySize=auto;html=1;" edge="1" parent="1" source="Ydd5iHWkTLME6IX3Onbc-8" target="Ydd5iHWkTLME6IX3Onbc-10">
          <mxGeometry relative="1" as="geometry" />
        </mxCell>
        <mxCell id="Ydd5iHWkTLME6IX3Onbc-8" value="Save Changes" style="rounded=1;whiteSpace=wrap;html=1;strokeWidth=2;" vertex="1" parent="1">
          <mxGeometry x="470" y="280" width="120" height="60" as="geometry" />
        </mxCell>
        <mxCell id="Ydd5iHWkTLME6IX3Onbc-10" value="End" style="strokeWidth=2;html=1;shape=mxgraph.flowchart.terminator;whiteSpace=wrap;" vertex="1" parent="1">
          <mxGeometry x="480" y="390" width="100" height="60" as="geometry" />
        </mxCell>
      </root>
    </mxGraphModel>
  </diagram>
</mxfile>
